<svg width="30" height="30" viewBox="0 0 30 30" fill="none" xmlns="http://www.w3.org/2000/svg">
<path d="M27.3141 0C27.3063 0 27.2984 0 27.2906 0H2.71728C2.70942 0 2.70157 0 2.69372 0H0V2.71728V2.95288V27.0628V27.2984V30H2.68586C2.69372 30 2.70157 30 2.70942 30H27.2827C27.2906 30 27.2984 30 27.3063 30H30V27.2827V27.0471V2.93717V2.70157V0H27.3141ZM9.28272 25.9005C9.28272 26.3403 8.92932 26.6937 8.48953 26.6937H5.12827C4.68848 26.6937 4.33508 26.3403 4.33508 25.9005V11.8115C4.33508 11.3717 4.68848 11.0183 5.12827 11.0183H8.48953C8.92932 11.0183 9.28272 11.3717 9.28272 11.8115V25.9005ZM6.8089 9.6911C5.04188 9.6911 3.61257 8.26178 3.61257 6.49476C3.61257 4.72775 5.04188 3.29843 6.8089 3.29843C8.57592 3.29843 10.0052 4.72775 10.0052 6.49476C10.0052 8.26178 8.57592 9.6911 6.8089 9.6911ZM26.8508 25.9712C26.8508 26.3717 26.5288 26.6937 26.1283 26.6937H22.5236C22.123 26.6937 21.801 26.3717 21.801 25.9712V19.3586C21.801 18.3691 22.0916 15.0393 19.2251 15.0393C17.0026 15.0393 16.5471 17.3246 16.4607 18.3456V25.9712C16.4607 26.3717 16.1387 26.6937 15.7382 26.6937H12.2513C11.8508 26.6937 11.5288 26.3717 11.5288 25.9712V11.7487C11.5288 11.3482 11.8508 11.0262 12.2513 11.0262H15.7382C16.1387 11.0262 16.4607 11.3482 16.4607 11.7487V12.9817C17.2853 11.7408 18.5105 10.7906 21.1178 10.7906C26.8979 10.7906 26.8586 16.1859 26.8586 19.1544V25.9712H26.8508Z" fill="#0077B7"/>
</svg>
