<svg width="140" height="37" viewBox="0 0 140 37" fill="none" xmlns="http://www.w3.org/2000/svg">
<path d="M44.7581 27.7002H39.0375V25.1141C38.1865 26.1779 37.326 26.9343 36.4561 27.3882C35.5862 27.8373 34.5224 28.0643 33.2601 28.0643C31.577 28.0643 30.2532 27.5584 29.2935 26.5514C28.3337 25.5443 27.8562 23.9889 27.8562 21.8945V11.7202H34.0118V20.5092C34.0118 21.5115 34.1962 22.2254 34.5697 22.6462C34.9432 23.067 35.4632 23.2797 36.1346 23.2797C36.8674 23.2797 37.4678 23.0008 37.9312 22.4382C38.3992 21.8756 38.6309 20.8685 38.6309 19.4124V11.7202H44.7534V27.7002H44.7581Z" fill="black"/>
<path d="M55.859 5.64014V11.7201H59.2299V16.2021H55.859V21.8613C55.859 22.5421 55.9252 22.9912 56.0528 23.2134C56.2514 23.5538 56.606 23.724 57.1071 23.724C57.5563 23.724 58.1898 23.5916 59.003 23.3316L59.4521 27.5583C57.9392 27.8892 56.5209 28.0547 55.2113 28.0547C53.6842 28.0547 52.5637 27.8609 51.8404 27.4684C51.117 27.076 50.5828 26.4851 50.2376 25.6861C49.8925 24.8871 49.7176 23.6011 49.7176 21.8187V16.2021H47.4624V11.7201H49.7176V8.78413L55.859 5.64014Z" fill="black"/>
<path d="M62.2086 11.7202H67.9434V14.3394C68.4966 13.2047 69.0639 12.4246 69.6502 11.9991C70.2364 11.5736 70.9598 11.3608 71.825 11.3608C72.728 11.3608 73.7161 11.6398 74.7893 12.2024L72.8934 16.5662C72.1701 16.2636 71.598 16.117 71.1772 16.117C70.3735 16.117 69.7542 16.448 69.3098 17.1099C68.6762 18.0412 68.3595 19.7905 68.3595 22.3483V27.7049H62.2039V11.7202H62.2086Z" fill="black"/>
<path d="M98.9389 11.7202H104.674V29.3786L104.688 30.0878C104.688 31.0901 104.475 32.0451 104.05 32.9528C103.624 33.8606 103.057 34.5934 102.348 35.156C101.638 35.7186 100.745 36.1252 99.6528 36.3758C98.5654 36.6263 97.3172 36.754 95.9131 36.754C92.7029 36.754 90.4997 36.2717 89.2989 35.3073C88.098 34.3428 87.5023 33.0568 87.5023 31.4399C87.5023 31.2414 87.5118 30.9671 87.5307 30.6267L93.4735 31.3028C93.6248 31.856 93.8565 32.2342 94.1638 32.4469C94.6129 32.759 95.1803 32.915 95.8658 32.915C96.7499 32.915 97.4071 32.6786 97.8468 32.2058C98.2817 31.733 98.4992 30.9104 98.4992 29.7379V27.3173C97.8988 28.0312 97.2936 28.5465 96.6932 28.868C95.7523 29.3691 94.7311 29.6197 93.639 29.6197C91.502 29.6197 89.7764 28.6883 88.4621 26.8208C87.5307 25.4971 87.0626 23.7478 87.0626 21.5682C87.0626 19.0814 87.6631 17.1856 88.8687 15.8807C90.0742 14.5758 91.6486 13.9234 93.5917 13.9234C94.8351 13.9234 95.8611 14.1361 96.6695 14.5569C97.478 14.9777 98.2297 15.6774 98.9342 16.6466V11.7202H98.9389ZM93.1757 22.0363C93.1757 23.1899 93.4215 24.0456 93.9132 24.6035C94.4049 25.1614 95.0526 25.4403 95.8564 25.4403C96.6175 25.4403 97.2605 25.1519 97.7758 24.5751C98.2912 23.9983 98.5512 23.1284 98.5512 21.9654C98.5512 20.8023 98.2817 19.9135 97.738 19.2942C97.1943 18.6796 96.5324 18.3675 95.7523 18.3675C94.9723 18.3675 94.3435 18.6512 93.8801 19.2185C93.4168 19.7859 93.1757 20.722 93.1757 22.0363Z" fill="black"/>
<path d="M108.371 5.64014H114.493V13.7672C115.326 12.9068 116.153 12.2874 116.976 11.9187C117.798 11.5452 118.772 11.3608 119.893 11.3608C121.557 11.3608 122.871 11.8667 123.826 12.8784C124.786 13.8902 125.263 15.4456 125.263 17.5448V27.7001H119.108V18.9111C119.108 17.9088 118.923 17.1996 118.55 16.7836C118.176 16.3675 117.656 16.1595 116.985 16.1595C116.243 16.1595 115.642 16.4385 115.179 17.0011C114.716 17.5637 114.489 18.5707 114.489 20.0269V27.7001H108.366V5.64014H108.371Z" fill="black"/>
<path d="M136.317 5.64014V11.7201H139.688V16.2021H136.317V21.8613C136.317 22.5421 136.383 22.9912 136.511 23.2134C136.709 23.5538 137.064 23.724 137.565 23.724C138.014 23.724 138.648 23.5916 139.461 23.3316L139.91 27.5583C138.397 27.8892 136.979 28.0547 135.669 28.0547C134.142 28.0547 133.022 27.8609 132.298 27.4684C131.575 27.076 131.041 26.4851 130.696 25.6861C130.351 24.8871 130.176 23.6011 130.176 21.8187V16.2021H127.92V11.7201H130.176V8.78413L136.317 5.64014Z" fill="black"/>
<path d="M78.4342 22.3861L71.8626 18.2587L69.8154 21.5209L81.0062 28.5512L81.5593 25.8232C82.954 18.9395 86.6086 12.609 92.6839 6.5621L90.1167 3.68286C84.1832 9.54535 80.3301 15.7104 78.4342 22.3861Z" fill="#8053FF"/>
<path d="M94.1306 0C93.2181 0.813184 92.3482 1.62637 91.5161 2.44901L94.0833 5.32824C94.9107 4.5056 95.7711 3.6877 96.6883 2.87451L94.1306 0Z" fill="#8053FF"/>
<path d="M12.6989 7.80091C16.8688 7.80091 20.2587 11.1908 20.2587 15.3607C20.2587 19.5306 16.8688 22.9205 12.6989 22.9205C8.52898 22.9205 5.13913 19.5306 5.13913 15.3607C5.13913 11.1955 8.5337 7.80091 12.6989 7.80091ZM12.6989 2.6665C5.68756 2.6665 0 8.34934 0 15.3654C0 22.3815 5.68283 28.0643 12.6989 28.0643C19.715 28.0643 25.3978 22.3815 25.3978 15.3654C25.3978 8.34934 19.715 2.6665 12.6989 2.6665Z" fill="black"/>
<path d="M109.558 31.2083V35.2222H111.822C112.002 35.2222 112.139 35.2695 112.238 35.3546C112.338 35.4444 112.385 35.5532 112.385 35.6855C112.385 35.8227 112.338 35.9314 112.243 36.0165C112.149 36.1016 112.011 36.1441 111.827 36.1441H109.127C108.886 36.1441 108.707 36.0921 108.603 35.9834C108.494 35.8747 108.442 35.6997 108.442 35.4586V31.213C108.442 30.9861 108.494 30.8159 108.593 30.7024C108.692 30.589 108.83 30.5322 108.995 30.5322C109.165 30.5322 109.298 30.589 109.402 30.6977C109.506 30.8112 109.558 30.9814 109.558 31.2083Z" fill="#8053FF"/>
<path d="M118.37 31.4871H115.855V32.8393H118.172C118.342 32.8393 118.47 32.8771 118.555 32.9527C118.64 33.0284 118.682 33.1324 118.682 33.2553C118.682 33.3782 118.645 33.4822 118.555 33.5626C118.474 33.643 118.342 33.6808 118.172 33.6808H115.855V35.2504H118.46C118.635 35.2504 118.767 35.2883 118.857 35.3734C118.947 35.4537 118.99 35.5625 118.99 35.6949C118.99 35.8272 118.942 35.9313 118.857 36.0116C118.767 36.0967 118.635 36.1345 118.46 36.1345H115.425C115.184 36.1345 115.004 36.0825 114.9 35.9738C114.791 35.8651 114.739 35.6901 114.739 35.449V31.3027C114.739 31.142 114.763 31.0096 114.81 30.9103C114.858 30.811 114.933 30.7354 115.037 30.6881C115.137 30.6408 115.269 30.6172 115.425 30.6172H118.375C118.555 30.6172 118.687 30.655 118.772 30.7354C118.862 30.8158 118.905 30.9198 118.905 31.0474C118.905 31.1798 118.862 31.2838 118.772 31.3595C118.682 31.4493 118.545 31.4871 118.37 31.4871Z" fill="#8053FF"/>
<path d="M126.526 33.8983V34.9573C126.526 35.0991 126.512 35.2079 126.488 35.293C126.46 35.3781 126.412 35.4537 126.337 35.5199C126.266 35.5908 126.166 35.657 126.053 35.7137C125.717 35.8934 125.401 36.0258 125.088 36.1109C124.781 36.196 124.446 36.2385 124.081 36.2385C123.656 36.2385 123.273 36.1723 122.923 36.0447C122.573 35.9123 122.275 35.7232 122.03 35.4773C121.784 35.2268 121.595 34.9289 121.467 34.5743C121.335 34.2197 121.268 33.8226 121.268 33.3876C121.268 32.9621 121.335 32.5697 121.458 32.2104C121.59 31.8558 121.774 31.5485 122.025 31.3074C122.271 31.0568 122.573 30.8677 122.928 30.7353C123.282 30.603 123.689 30.5415 124.138 30.5415C124.512 30.5415 124.838 30.5888 125.122 30.6881C125.405 30.7873 125.637 30.9103 125.817 31.0616C125.996 31.2129 126.129 31.3736 126.218 31.5391C126.308 31.7093 126.356 31.8558 126.356 31.9882C126.356 32.13 126.304 32.2482 126.2 32.3475C126.096 32.4468 125.968 32.4988 125.826 32.4988C125.741 32.4988 125.67 32.4799 125.594 32.4421C125.523 32.4043 125.457 32.3523 125.41 32.2861C125.273 32.0686 125.155 31.9078 125.06 31.7991C124.961 31.6904 124.833 31.5958 124.672 31.5202C124.512 31.4445 124.304 31.4067 124.053 31.4067C123.793 31.4067 123.566 31.454 123.363 31.5391C123.16 31.6289 122.985 31.7565 122.843 31.9267C122.701 32.097 122.587 32.305 122.512 32.5508C122.436 32.7967 122.398 33.0709 122.398 33.364C122.398 34.0117 122.545 34.5081 122.843 34.858C123.141 35.2079 123.557 35.3781 124.086 35.3781C124.346 35.3781 124.587 35.345 124.814 35.2788C125.041 35.2126 125.273 35.118 125.505 34.9856V34.0921H124.644C124.431 34.0921 124.28 34.059 124.171 33.9975C124.067 33.9361 124.015 33.8273 124.015 33.676C124.015 33.5579 124.058 33.4538 124.148 33.3735C124.237 33.2931 124.356 33.2553 124.512 33.2553H125.779C125.935 33.2553 126.062 33.2695 126.171 33.2978C126.28 33.3262 126.365 33.3876 126.436 33.4822C126.493 33.5626 126.526 33.7091 126.526 33.8983Z" fill="#8053FF"/>
<path d="M132.445 35.5153L132.18 34.8251H129.939L129.674 35.5343C129.57 35.8085 129.485 35.9976 129.41 36.0921C129.339 36.1867 129.221 36.2387 129.055 36.2387C128.913 36.2387 128.79 36.1867 128.682 36.0827C128.573 35.9787 128.521 35.8652 128.521 35.7328C128.521 35.6572 128.535 35.5815 128.559 35.5012C128.582 35.4208 128.625 35.3073 128.682 35.1655L130.095 31.5865C130.133 31.4825 130.185 31.3596 130.237 31.213C130.294 31.0712 130.355 30.9483 130.417 30.8537C130.483 30.7592 130.563 30.6788 130.672 30.6221C130.776 30.5606 130.904 30.5322 131.06 30.5322C131.211 30.5322 131.343 30.5606 131.447 30.6221C131.551 30.6788 131.637 30.7592 131.698 30.849C131.764 30.9435 131.816 31.0381 131.859 31.1468C131.901 31.2509 131.958 31.3974 132.024 31.5723L133.466 35.1324C133.58 35.4019 133.636 35.6004 133.636 35.7234C133.636 35.851 133.584 35.9645 133.48 36.0732C133.372 36.1772 133.244 36.234 133.093 36.234C133.003 36.234 132.932 36.2151 132.866 36.1867C132.804 36.1536 132.752 36.111 132.71 36.059C132.667 36.0023 132.62 35.9219 132.573 35.8085C132.525 35.6997 132.483 35.6004 132.445 35.5153ZM130.232 33.9835H131.878L131.046 31.7095L130.232 33.9835Z" fill="#8053FF"/>
<path d="M137.168 31.2083V35.2222H139.437C139.617 35.2222 139.754 35.2695 139.853 35.3546C139.953 35.4444 140 35.5532 140 35.6855C140 35.8227 139.953 35.9314 139.858 36.0165C139.764 36.1016 139.622 36.1441 139.442 36.1441H136.743C136.501 36.1441 136.322 36.0921 136.218 35.9834C136.109 35.8747 136.057 35.6997 136.057 35.4586V31.213C136.057 30.9861 136.109 30.8159 136.208 30.7024C136.308 30.589 136.445 30.5322 136.61 30.5322C136.776 30.5322 136.913 30.589 137.017 30.6977C137.116 30.8112 137.168 30.9814 137.168 31.2083Z" fill="#8053FF"/>
</svg>
