<svg width="106" height="123" viewBox="0 0 106 123" fill="none" xmlns="http://www.w3.org/2000/svg">
<path d="M62.2992 122.745C60.6092 122.065 58.7992 121.595 57.2692 120.655C54.2592 118.815 52.5792 115.955 51.9492 112.515C43.7592 112.905 41.7292 103.965 46.0092 99.6546C44.4892 98.0646 43.7492 96.1646 43.8392 93.9346C43.9192 91.6946 44.7792 89.8446 46.5292 88.3546C44.6592 86.4846 43.8992 84.2646 43.7792 81.7246C43.6792 79.5246 42.3992 77.9746 40.6092 76.7846C37.2192 74.5446 34.2292 71.8446 31.6492 68.7146C26.7392 62.7646 23.6592 55.9846 22.4992 48.3446C21.3592 40.8746 22.1992 33.6346 24.9292 26.6046C25.0192 26.3846 25.0892 26.1546 25.1892 25.9346C25.6792 24.9146 26.6092 24.4946 27.5392 24.8646C28.5292 25.2546 28.9492 26.1146 28.6092 27.2146C28.0492 29.0446 27.2692 30.8146 26.8692 32.6746C23.4592 48.4446 27.9092 61.5746 40.2692 71.9746C41.3692 72.8946 42.5992 73.6546 43.7392 74.5346C45.9692 76.2546 47.2092 78.5346 47.4592 81.3646C47.5392 82.2746 47.6192 83.2246 47.9592 84.0546C48.6492 85.7246 49.9692 86.7846 51.8192 86.8246C55.1692 86.8946 58.5292 86.8446 62.0292 86.8446C62.0492 86.4146 62.0792 85.9946 62.0792 85.5846C62.0792 75.1946 62.0692 64.8046 62.0992 54.4146C62.0992 53.5246 61.9092 53.1046 60.9892 52.8146C57.1292 51.5946 54.5792 47.9746 54.6092 43.9246C54.6292 39.8846 57.2292 36.2946 61.0992 35.0946C61.8492 34.8646 62.0992 34.5746 62.0992 33.7946C62.0792 24.1246 62.0792 14.4546 62.0792 4.7846C62.0792 4.4746 62.0292 4.16462 61.9992 3.77462C57.9492 3.88462 54.1192 4.73462 50.4192 6.15462C42.6392 9.13462 36.4992 14.1546 31.9092 21.0946C30.8292 22.7346 29.9192 23.1246 28.8392 22.4446C27.7492 21.7546 27.7492 20.6846 28.8692 19.0046C35.3392 9.36463 44.2492 3.27459 55.5892 0.844594C58.1092 0.304594 60.7292 0.194607 63.3092 0.0146072C65.1492 -0.115393 65.8092 0.614607 65.8192 2.51461C65.8292 6.39461 65.8192 10.2646 65.8192 14.1446C65.8192 20.6146 65.8392 27.0946 65.7992 33.5646C65.7892 34.4646 66.0292 34.8646 66.9392 35.1546C70.7292 36.3646 73.2992 39.9946 73.3092 43.9546C73.3192 47.9746 70.7292 51.5946 66.8792 52.8446C66.2092 53.0646 65.7992 53.2446 65.7992 54.1046C65.8292 64.7746 65.8192 75.4446 65.8192 86.1146C65.8192 86.3146 65.8492 86.5046 65.8792 86.8946C66.3592 86.8946 66.8192 86.8946 67.2792 86.8946C70.7492 86.9246 74.2292 86.8846 77.6992 87.0246C80.4692 87.1346 82.4492 88.6946 83.4692 91.2046C84.5392 93.8346 84.2792 96.4446 82.5792 98.8146C82.3692 99.1046 82.1392 99.3646 81.9192 99.6346C86.3092 106.275 83.7592 111.845 76.1492 112.505C75.5392 113.965 75.0992 115.475 74.3292 116.795C72.5392 119.885 69.7892 121.765 66.2892 122.525C66.0592 122.575 65.8492 122.675 65.6292 122.755C64.5292 122.745 63.4192 122.745 62.2992 122.745ZM63.9592 90.5946C59.7192 90.5946 55.4892 90.5946 51.2492 90.5946C48.8792 90.5946 47.5492 91.8646 47.5192 94.1446C47.4892 96.4746 48.8392 97.8146 51.2492 97.8146C56.1292 97.8246 60.9992 97.8146 65.8692 97.8146C66.2292 97.8146 66.5992 97.7846 66.9492 97.8546C67.9092 98.0546 68.5392 98.6046 68.5392 99.6546C68.5292 100.685 67.9792 101.285 66.9692 101.435C66.4992 101.505 66.0192 101.515 65.5392 101.515C60.7392 101.525 55.9492 101.495 51.1492 101.525C48.8192 101.545 47.5592 102.815 47.5192 105.055C47.4792 107.355 48.7592 108.745 51.1192 108.745C59.6692 108.775 68.2192 108.775 76.7692 108.745C79.1592 108.735 80.3492 107.425 80.3392 105.055C80.3192 102.775 79.1192 101.575 76.7492 101.525C75.4692 101.495 74.1892 101.555 72.9192 101.485C71.7392 101.415 70.9492 100.585 70.9992 99.5946C71.0492 98.5846 71.8592 97.8546 73.0492 97.8246C74.2492 97.7946 75.4492 97.8146 76.6492 97.8146C79.0992 97.8046 80.3592 96.5546 80.3492 94.1546C80.3392 91.8246 79.0792 90.5946 76.6692 90.5946C72.4292 90.5846 68.1892 90.5946 63.9592 90.5946ZM55.8392 112.475C56.3692 116.125 59.9792 119.035 63.9192 119.065C67.8492 119.105 71.5592 116.115 72.0692 112.475C66.6792 112.475 61.2992 112.475 55.8392 112.475ZM62.0192 38.7646C59.8392 39.3446 58.1992 41.6646 58.2392 44.0346C58.2892 46.4246 59.9392 48.6746 62.0192 49.1346C62.0192 45.6746 62.0192 42.2246 62.0192 38.7646ZM65.8292 38.7346C65.8292 42.0346 65.8292 45.2146 65.8292 48.4046C65.8292 48.6346 65.8792 48.8646 65.8992 49.0946C67.8892 48.7246 69.4492 46.6446 69.5992 44.2346C69.7592 41.7946 68.2292 39.4746 65.8292 38.7346Z" fill="black"/>
<path d="M76.9191 80.6347C81.0791 78.2346 85.1091 75.9046 89.2091 73.5346C88.2091 70.7346 87.2791 67.9846 86.2291 65.2746C85.7691 64.0846 85.9091 63.1646 86.7191 62.1946C88.6091 59.9046 90.1091 57.3546 91.1291 54.5646C91.5591 53.3846 92.2991 52.7846 93.5591 52.5946C96.0391 52.2246 98.4991 51.7046 100.979 51.2946C101.809 51.1646 102.209 50.9346 102.199 49.9646C102.139 45.9246 102.149 41.8946 102.189 37.8546C102.199 37.0346 101.909 36.7546 101.129 36.6246C98.4591 36.1846 95.7791 35.7446 93.1291 35.1546C92.4691 35.0046 91.6392 34.3946 91.3892 33.7846C90.1192 30.7346 88.5491 27.8946 86.4591 25.3446C85.8291 24.5846 85.8191 23.7846 86.1491 22.8846C87.1791 20.0847 88.1791 17.2746 89.2291 14.3746C85.1391 12.0146 81.1091 9.68461 76.9491 7.28461C76.3491 7.97461 75.7491 8.64463 75.1691 9.33463C73.7991 10.9446 72.4391 12.5746 71.0691 14.1846C70.1191 15.2946 69.0291 15.4746 68.1591 14.7146C67.3491 13.9946 67.3491 12.9046 68.2391 11.8446C70.4391 9.20461 72.6591 6.58461 74.8891 3.97461C75.7891 2.92461 76.5191 2.80463 77.7291 3.49463C82.5091 6.23463 87.2791 8.98463 92.0391 11.7446C93.2891 12.4746 93.5391 13.1846 93.0591 14.5546C92.1091 17.2646 91.1292 19.9546 90.1392 22.6446C89.8992 23.2946 89.9591 23.7646 90.3491 24.3846C91.6591 26.4746 92.8991 28.6146 94.0691 30.7846C94.4291 31.4546 94.7991 31.7746 95.5691 31.8946C98.3291 32.3246 101.069 32.8446 103.809 33.3546C105.409 33.6546 105.899 34.2646 105.909 35.8946C105.919 41.2146 105.919 46.5246 105.909 51.8446C105.909 53.6746 105.429 54.2346 103.599 54.5646C100.849 55.0646 98.0991 55.5146 95.3691 56.0646C94.9291 56.1546 94.4291 56.5746 94.1891 56.9846C92.8691 59.1646 91.5891 61.3646 90.3691 63.6046C90.1391 64.0246 90.0191 64.6546 90.1591 65.0846C91.0491 67.7246 92.0291 70.3446 92.9691 72.9646C93.6091 74.7646 93.3991 75.3746 91.7791 76.3146C87.1891 78.9746 82.5891 81.6346 77.9891 84.2746C76.5091 85.1246 75.8691 85.0346 74.7691 83.7546C72.5891 81.2046 70.4291 78.6346 68.2691 76.0646C67.3791 75.0046 67.3591 73.9146 68.1591 73.1946C69.0191 72.4146 70.1391 72.5946 71.0691 73.6846C72.9991 75.9746 74.9191 78.2646 76.9191 80.6347Z" fill="black"/>
<path d="M82.1892 43.9446C82.1992 51.5446 77.3692 58.4546 70.2192 61.0946C69.1092 61.5046 68.1093 61.1446 67.6993 60.1946C67.2793 59.2146 67.6292 58.2246 68.7692 57.7546C71.3492 56.6646 73.5792 55.1546 75.3792 52.9646C81.1092 46.0046 78.5293 34.6546 70.3293 30.8846C69.7893 30.6346 69.2193 30.4246 68.6993 30.1446C67.6293 29.5746 67.2792 28.6146 67.7592 27.6546C68.1992 26.7546 69.1393 26.4346 70.1993 26.8146C77.2993 29.3746 82.1792 36.3446 82.1892 43.9446Z" fill="#8053FF"/>
<path d="M15.1592 36.1246C12.6692 35.6446 10.2192 35.1646 7.75921 34.6846C5.80921 34.3046 3.8592 33.9046 1.9092 33.5146C0.589202 33.2446 -0.160803 32.3546 0.0291969 31.3246C0.249197 30.1846 1.2192 29.6346 2.5992 29.8946C6.8092 30.7146 11.0292 31.5446 15.2392 32.3846C16.5192 32.6446 17.1692 33.4246 17.0392 34.5146C16.9392 35.4346 16.0892 36.1446 15.1592 36.1246Z" fill="black"/>
<path d="M3.73915 66.3246C3.27915 65.8846 2.48915 65.4646 2.34915 64.8946C2.19915 64.3046 2.58915 63.5246 2.90915 62.9046C3.04915 62.6246 3.57914 62.5046 3.94914 62.3846C7.89914 61.0346 11.8492 59.6946 15.7992 58.3646C17.2192 57.8846 18.2391 58.2346 18.6191 59.2746C19.0391 60.4246 18.4791 61.3346 16.9991 61.8446C13.4291 63.0646 9.84915 64.2646 6.27915 65.4746C5.52915 65.7246 4.77915 65.9746 3.73915 66.3246Z" fill="black"/>
<path d="M33.2792 81.1247C32.8992 81.8047 32.7092 82.3446 32.3592 82.7446C29.5392 86.0046 26.6992 89.2446 23.8492 92.4646C22.9092 93.5246 21.8692 93.6646 21.0292 92.9546C20.1292 92.1946 20.1292 91.1347 21.1092 90.0147C23.9092 86.7947 26.7292 83.5947 29.5392 80.3847C30.1692 79.6647 30.9492 79.1846 31.8392 79.6446C32.4092 79.9246 32.7792 80.5847 33.2792 81.1247Z" fill="black"/>
<path d="M16.2292 0.164612C16.9392 0.574612 17.5092 0.794612 17.9392 1.16461C21.1592 3.95461 24.3692 6.7646 27.5592 9.5946C28.6092 10.5246 28.7392 11.5646 27.9792 12.4146C27.2292 13.2546 26.1792 13.2646 25.1292 12.3546C21.8492 9.50461 18.5992 6.62462 15.3292 3.76462C14.6192 3.14462 14.2792 2.34461 14.6992 1.53461C14.9892 0.984607 15.6692 0.644612 16.2292 0.164612Z" fill="black"/>
</svg>
