<svg width="87" height="112" viewBox="0 0 87 112" fill="none" xmlns="http://www.w3.org/2000/svg">
<path d="M42.0701 111.545C39.6701 110.455 37.2401 109.415 34.8701 108.255C16.8801 99.425 5.66014 85.225 1.29014 65.655C0.37014 61.525 0.020143 57.335 0.020143 53.115C0.010143 43.775 0.0401388 34.445 0.000138762 25.105C-0.00986124 23.695 0.520139 22.835 1.75014 22.155C14.9701 14.945 28.1601 7.71497 41.3501 0.454974C42.4601 -0.155026 43.4001 -0.144974 44.5101 0.445026C58.0701 7.69503 71.6301 14.925 85.2201 22.135C86.4501 22.785 87.0101 23.615 87.0001 25.055C86.9501 34.315 86.9901 43.585 86.9701 52.845C86.9201 77.235 72.7701 98.735 50.3801 108.475C48.1001 109.465 45.8601 110.515 43.5901 111.545C43.0801 111.545 42.5701 111.545 42.0701 111.545ZM82.6501 41.925C82.7001 41.925 82.7401 41.925 82.7901 41.925C82.7901 36.875 82.7701 31.825 82.8101 26.775C82.8201 25.945 82.5801 25.495 81.8301 25.095C69.1801 18.385 56.5401 11.645 43.9101 4.89498C43.2201 4.52498 42.7101 4.52499 42.0201 4.90499C29.7601 11.655 17.4901 18.385 5.21014 25.085C4.51014 25.465 4.26014 25.885 4.26014 26.675C4.29014 35.535 4.29014 44.405 4.27014 53.265C4.26014 58.965 5.00014 64.555 6.74014 69.985C12.0301 86.435 22.6101 98.155 38.3501 105.215C39.8301 105.885 41.3501 106.975 42.8501 106.975C44.3501 106.975 45.8501 105.825 47.3501 105.205C57.9001 100.865 66.5201 94.105 72.9601 84.665C78.8601 76.025 82.1901 66.465 82.6201 55.985C82.8101 51.305 82.6501 46.615 82.6501 41.925Z" fill="black"/>
<path d="M37.2401 63.545C39.0801 62.065 40.8502 60.635 42.6202 59.195C48.6702 54.275 54.7202 49.335 60.7802 44.425C61.2202 44.065 61.7302 43.705 62.2602 43.575C63.2402 43.345 64.0402 43.735 64.5302 44.645C65.0002 45.535 64.8102 46.525 63.9202 47.275C61.8602 48.995 59.7701 50.675 57.6801 52.375C51.4601 57.435 45.2401 62.505 39.0201 67.565C37.1601 69.075 36.3302 68.985 34.7602 67.135C31.3902 63.185 28.0002 59.255 24.6802 55.275C24.2402 54.745 23.9502 53.935 23.9302 53.245C23.9102 52.405 24.5402 51.815 25.4002 51.575C26.3202 51.315 27.0401 51.645 27.6301 52.325C29.6201 54.635 31.5902 56.955 33.5802 59.275C34.7702 60.655 35.9701 62.055 37.2401 63.545Z" fill="#8053FF"/>
</svg>
