<svg width="123" height="124" viewBox="0 0 123 124" fill="none" xmlns="http://www.w3.org/2000/svg">
<ellipse cx="44" cy="109.5" rx="27" ry="10.5" fill="#8053FF"/>
<path d="M0 75.91C0.4 73.48 0.68 71.01 1.23 68.62C3.17 60.27 7.3 53.13 13.39 47.12C14.48 46.04 15.46 45.9 16.31 46.73C17.1 47.5 17.01 48.64 15.97 49.68C11.39 54.22 7.92 59.48 5.84 65.61C3.68 71.97 3.1 78.48 4.16 85.12C5.74 94.99 10.37 103.18 17.92 109.67C23.81 114.74 30.64 117.86 38.35 118.91C49.48 120.43 59.59 117.84 68.55 111.04C76.18 105.26 81.05 97.61 83.45 88.17C69.55 89.23 57.43 85.26 47.56 75.38C37.68 65.49 33.7 53.34 34.75 39.41C31.34 40.19 28.19 41.4 25.19 43C24.7 43.26 24.21 43.55 23.71 43.78C22.67 44.25 21.68 43.98 21.19 43.13C20.67 42.22 20.93 41.14 22.02 40.6C24.37 39.43 26.74 38.27 29.17 37.29C30.86 36.61 32.67 36.21 34.44 35.78C35.21 35.59 35.54 35.22 35.7 34.47C37.89 24.73 42.85 16.67 50.47 10.27C57.39 4.47002 65.36 1.10001 74.36 0.230011C74.67 0.200011 74.97 0.08 75.28 0C77.6 0 79.92 0 82.23 0C82.53 0.08 82.83 0.200011 83.14 0.230011C90.55 0.980011 97.3 3.5 103.48 7.66C119.23 18.28 126.63 38.63 120.89 56.75C115.8 72.82 104.89 82.99 88.53 87.19C87.75 87.39 87.22 87.63 87.03 88.54C85.22 96.84 81.24 103.98 75.28 109.99C69.62 115.7 62.89 119.62 55.08 121.57C52.58 122.19 50 122.54 47.46 123.01C45.3 123.01 43.14 123.01 40.99 123.01C40.68 122.94 40.38 122.84 40.07 122.81C34.01 122.27 28.25 120.57 22.96 117.57C11.7 111.19 4.38 101.71 1.26 89.09C0.679998 86.74 0.419998 84.31 0.00999832 81.91C-1.67824e-06 79.91 0 77.91 0 75.91ZM77.19 49.29C87.73 38.73 98.36 28.08 109.04 17.38C107.83 16.12 106.5 14.75 105.3 13.49C94.51 24.3 83.88 34.95 73.4 45.45C74.64 46.72 75.98 48.07 77.19 49.29ZM70.06 43.06C80.72 32.38 91.33 21.74 102.04 11.02C100.72 10.22 99.33 9.44 98.01 8.56C97.21 8.02 96.71 8.07001 96 8.79001C86 18.86 75.97 28.9 65.94 38.95C65.64 39.25 65.37 39.57 65.07 39.9C66.84 41.02 68.48 42.06 70.06 43.06ZM111.68 20.65C100.93 31.42 90.33 42.04 79.69 52.7C80.7 54.27 81.76 55.93 82.8 57.55C93.41 46.92 103.99 36.32 114.69 25.59C113.72 23.99 112.69 22.3 111.68 20.65ZM116.49 29.51C116.33 29.43 116.17 29.35 116.01 29.27C115.77 29.63 115.59 30.04 115.29 30.34C107.56 38.11 99.81 45.86 92.07 53.62C89.78 55.91 87.48 58.2 85.21 60.51C84.96 60.77 84.61 61.23 84.69 61.47C85.32 63.41 86.05 65.32 86.75 67.25C86.88 67.19 86.93 67.19 86.95 67.16C97.24 56.86 107.54 46.57 117.82 36.26C118.03 36.04 118.23 35.6 118.16 35.34C117.64 33.38 117.05 31.45 116.49 29.51ZM93.32 6.26001C91.4 5.72001 89.64 5.28002 87.92 4.71002C87.05 4.42002 86.54 4.67 85.94 5.28C76.04 15.23 66.12 25.15 56.21 35.09C55.94 35.36 55.68 35.66 55.35 36.01C57.13 36.64 58.84 37.17 60.48 37.85C61.27 38.18 61.73 38.04 62.31 37.45C72.32 27.38 82.35 17.34 92.37 7.29001C92.64 7.01001 92.9 6.72001 93.32 6.26001ZM118.94 40.5C118.72 40.59 118.68 40.6 118.65 40.62C108.47 50.8 98.29 60.99 88.13 71.18C87.91 71.4 87.71 71.8 87.73 72.11C87.89 74.48 88.12 76.85 88.33 79.33C88.52 79.18 88.65 79.11 88.75 79C98.64 69.09 108.53 59.18 118.41 49.26C118.65 49.02 118.91 48.67 118.92 48.36C118.96 45.79 118.94 43.2 118.94 40.5ZM43.2 34.22C43.27 34.31 43.34 34.4 43.41 34.49C45.71 34.69 48 34.92 50.3 35.04C50.76 35.06 51.35 34.73 51.7 34.38C61.6 24.5 71.48 14.59 81.37 4.67999C81.6 4.44999 81.79 4.18002 82.12 3.80002C79.62 3.80002 77.36 3.83001 75.09 3.79001C74.13 3.77001 73.46 4.14 72.8 4.81C63.27 14.39 53.72 23.95 44.17 33.5C43.88 33.78 43.52 33.99 43.2 34.22ZM51.98 74.72C59.58 67.11 67.04 59.65 74.54 52.15C73.26 50.79 71.93 49.38 70.65 48.03C63.01 55.69 55.58 63.13 47.98 70.75C49.3 72.07 50.68 73.44 51.98 74.72ZM77.12 55.38C69.78 62.73 62.56 69.96 55.28 77.26C56.87 78.23 58.56 79.27 60.15 80.24C66.84 73.54 73.42 66.94 80.09 60.26C79.12 58.64 78.08 56.94 77.12 55.38ZM45.47 67.34C52.74 60.05 59.97 52.81 67.23 45.54C66.02 44.82 64.63 44.04 63.3 43.16C62.57 42.68 62.1 42.74 61.48 43.38C59.35 45.6 57.15 47.75 54.98 49.93C51.08 53.83 47.19 57.74 43.29 61.63C42.84 62.08 42.5 62.44 42.95 63.14C43.88 64.58 44.71 66.08 45.47 67.34ZM117.33 55.86C108.43 64.77 99.39 73.83 90.48 82.76C101.19 80.28 113.75 69.54 117.33 55.86ZM64 82.01C65.98 82.58 67.95 83.17 69.94 83.7C70.19 83.77 70.61 83.54 70.83 83.33C74.97 79.21 79.09 75.08 83.2 70.94C83.4 70.74 83.64 70.37 83.58 70.16C83.04 68.14 82.45 66.13 81.87 64.11C75.86 70.13 70 76.01 64 82.01ZM40.73 58.34C46.62 52.44 52.43 46.62 58.26 40.78C56.58 40.31 54.71 39.76 52.83 39.29C52.5 39.21 51.97 39.38 51.72 39.63C47.66 43.65 43.62 47.7 39.6 51.76C39.36 52 39.12 52.47 39.2 52.76C39.68 54.71 40.25 56.65 40.73 58.34ZM40.15 32.25C49.08 23.44 58.01 14.63 66.93 5.82001C66.84 5.73001 66.75 5.64002 66.66 5.55002C53.86 9.12002 43.18 20.64 40.15 32.25ZM84.4 75.55C81.43 78.53 78.36 81.6 75.41 84.55C77.49 84.55 79.84 84.59 82.19 84.54C83.73 84.51 84.35 83.92 84.38 82.43C84.44 80.04 84.4 77.64 84.4 75.55ZM38.49 47.02C41.28 44.24 44.25 41.29 47 38.55C44.8 38.55 42.26 38.54 39.72 38.55C38.97 38.55 38.5 38.95 38.5 39.72C38.48 42.3 38.49 44.87 38.49 47.02Z" fill="black"/>
</svg>
