<svg width="115" height="116" viewBox="0 0 115 116" fill="none" xmlns="http://www.w3.org/2000/svg">
<path d="M33.2818 115.167C32.4918 114.477 32.3418 113.597 32.3418 112.577C32.3618 98.787 32.3518 85.007 32.3818 71.217C32.3818 69.977 31.9818 69.037 31.2318 68.057C29.0618 65.247 26.9718 62.367 24.9219 59.467C24.4818 58.837 24.0118 58.497 23.2818 58.307C11.3818 55.327 3.84184 47.847 0.821845 35.997C-0.708155 29.987 -0.0381441 24.037 2.30186 18.287C2.85186 16.937 3.66185 16.467 4.67185 16.887C5.72185 17.317 5.98183 18.227 5.43183 19.617C-0.208169 33.957 7.05186 49.587 21.5519 54.347C36.8419 59.357 53.2619 49.077 55.3619 33.177C57.1919 19.317 48.3119 6.61699 34.6419 3.98699C24.8719 2.11699 16.5418 5.097 9.84183 12.497C9.74183 12.607 9.64185 12.727 9.54185 12.837C8.72185 13.727 7.74184 13.887 6.97184 13.247C6.13184 12.547 6.09186 11.577 6.99186 10.587C8.05186 9.42703 9.12186 8.26704 10.3019 7.22704C19.1719 -0.562956 32.3418 -2.18301 42.8218 3.23699C43.5318 3.59699 44.0618 3.56704 44.7918 3.28704C60.0918 -2.56296 74.3119 -0.672988 87.2119 9.50701C92.9719 14.057 96.1618 20.277 97.5318 27.407C98.4018 31.917 98.9718 36.487 99.7918 41.007C100.692 45.937 102.652 50.417 105.672 54.447C107.462 56.847 108.872 59.417 108.592 62.597C108.352 65.297 107.172 67.377 104.622 68.347C102.892 69.007 101.042 69.367 99.2119 69.697C98.4019 69.847 98.1719 70.087 98.1719 70.887C98.2019 75.117 98.2118 79.357 98.1818 83.587C98.1518 89.217 94.5618 93.587 89.0018 94.517C87.5418 94.767 85.9219 94.597 84.4619 94.267C81.1919 93.517 77.9618 92.537 74.7218 91.657C72.6718 91.107 71.6918 91.847 71.6818 93.927C71.6818 94.487 71.7119 95.057 71.6719 95.617C71.5919 96.657 70.8918 97.357 69.9718 97.377C69.0618 97.387 68.3118 96.697 68.2818 95.647C68.2418 94.567 68.2318 93.467 68.3818 92.397C68.7618 89.607 71.7519 87.477 74.4919 88.137C78.0819 88.997 81.6319 90.047 85.2119 90.987C89.1419 92.027 93.0019 90.097 94.2719 86.387C94.6119 85.387 94.7019 84.257 94.7119 83.197C94.7619 78.777 94.7318 74.357 94.7318 69.937C94.7318 67.657 95.3418 66.937 97.5718 66.537C99.0018 66.277 100.442 66.057 101.872 65.757C105.372 65.047 105.782 62.317 104.832 59.867C104.312 58.527 103.522 57.247 102.662 56.097C98.6818 50.797 96.8118 44.717 95.7818 38.287C95.1118 34.117 94.6119 29.907 93.6119 25.817C91.4619 17.007 85.6418 11.137 77.6818 7.32702C68.4118 2.89702 58.8018 2.22702 48.9718 5.32702C48.4518 5.48702 47.9419 5.71703 47.6419 5.83703C49.6619 8.09703 51.7518 10.287 53.6518 12.637C54.3418 13.497 54.8219 13.817 55.9919 13.647C67.8919 11.827 78.8919 19.117 81.9219 30.757C85.3718 43.997 76.0819 57.587 62.4919 59.217C56.4119 59.947 50.9219 58.497 45.9619 54.947C45.7519 54.797 45.5318 54.647 45.2918 54.487C40.2618 57.587 34.8119 59.157 28.7419 59.007C28.9319 59.377 29.0318 59.647 29.1918 59.867C30.7718 61.957 32.3119 64.077 33.9818 66.097C35.1418 67.487 35.7519 68.967 35.7419 70.7971C35.7119 83.9871 35.7218 97.167 35.7218 110.357C35.7218 110.797 35.7218 111.247 35.7218 111.757C46.5718 111.757 57.3419 111.757 68.2318 111.757C68.2318 109.487 68.2318 107.247 68.2318 105.007C68.2318 104.517 68.2118 104.027 68.2518 103.547C68.3418 102.477 69.0118 101.817 69.9519 101.827C70.8718 101.837 71.5818 102.537 71.6518 103.577C71.7018 104.247 71.6618 104.927 71.6618 105.597C71.6618 107.997 71.6318 110.397 71.6818 112.787C71.7018 113.807 71.4219 114.607 70.5819 115.187C58.1619 115.167 45.7218 115.167 33.2818 115.167ZM48.3919 52.377C54.4119 57.017 64.5018 57.657 71.9818 51.587C79.3219 45.627 81.3519 35.117 76.7318 26.847C71.7518 17.907 61.8619 15.687 56.4519 17.137C61.7019 30.697 58.9819 42.437 48.3919 52.377Z" fill="black"/>
<path d="M21.5818 32.8571C21.6718 29.4071 22.8318 26.8671 24.8118 24.6071C27.5618 21.4871 26.1818 16.8671 22.2318 15.7271C18.5818 14.6771 14.9818 17.747 15.4318 21.527C15.4618 21.747 15.4918 21.977 15.5018 22.197C15.5218 23.217 14.8818 23.987 13.9618 24.077C13.1118 24.167 12.3818 23.567 12.1518 22.597C11.1518 18.377 13.9818 13.7271 18.3218 12.4771C22.0718 11.3871 26.1018 12.8871 28.2418 16.1671C30.3718 19.4171 30.1618 23.5671 27.6118 26.6071C26.3318 28.1271 25.2218 29.697 25.1118 31.747C25.0618 32.667 25.1818 33.607 25.3318 34.527C25.5318 35.807 25.1218 36.717 24.1218 36.937C23.0618 37.167 22.3018 36.597 22.0218 35.317C21.8018 34.347 21.6718 33.3871 21.5818 32.8571Z" fill="#8053FF"/>
<path d="M106.912 2.987C110.462 2.987 113.542 5.37706 114.382 8.79706C115.222 12.2371 113.672 15.837 110.442 17.377C108.042 18.527 106.432 20.137 105.922 22.807C105.702 23.927 104.842 24.387 103.842 24.137C102.902 23.897 102.462 23.047 102.672 21.937C103.342 18.327 105.462 15.937 108.762 14.437C110.582 13.607 111.392 11.897 111.102 9.90704C110.842 8.12704 109.352 6.66702 107.512 6.38702C105.822 6.12702 104.002 7.05706 103.202 8.60706C103.002 8.99706 102.892 9.44706 102.722 9.85706C102.342 10.7771 101.512 11.207 100.662 10.937C99.7318 10.637 99.2618 9.80702 99.4818 8.81702C100.232 5.43702 103.352 2.987 106.912 2.987Z" fill="#8053FF"/>
<path d="M47.1718 26.897C47.1518 30.007 45.2018 32.887 42.1918 33.967C39.8018 34.827 38.1518 36.257 37.4718 38.767C37.1618 39.917 36.2118 40.3671 35.2218 40.0371C34.3318 39.7371 33.9218 38.827 34.2318 37.717C35.1818 34.387 37.2918 32.147 40.5418 30.957C42.8018 30.127 43.8418 28.637 43.6918 26.497C43.5518 24.537 42.2318 23.057 40.2218 22.637C38.4718 22.267 36.5818 23.207 35.7318 24.867C35.5818 25.167 35.4818 25.497 35.3118 25.777C34.8318 26.587 34.1318 26.917 33.2218 26.577C32.3018 26.237 31.9218 25.457 32.2118 24.597C32.5318 23.657 33.0018 22.727 33.6118 21.947C35.6118 19.407 39.0618 18.507 42.1118 19.617C45.1218 20.727 47.1918 23.707 47.1718 26.897Z" fill="black"/>
<path d="M24.9618 39.647C26.0718 39.627 26.9618 40.487 26.9818 41.587C27.0018 42.677 26.1118 43.607 25.0418 43.637C24.0018 43.657 23.0218 42.727 22.9918 41.667C22.9618 40.597 23.8718 39.667 24.9618 39.647Z" fill="black"/>
<path d="M104.762 27.747C104.792 28.677 104.012 29.487 103.102 29.487C102.242 29.487 101.462 28.727 101.432 27.867C101.402 26.947 102.162 26.157 103.102 26.157C104.002 26.157 104.732 26.857 104.762 27.747Z" fill="black"/>
<path d="M34.1719 45.247C33.2519 45.257 32.5118 44.5571 32.4718 43.6571C32.4418 42.7571 33.2819 41.897 34.1719 41.927C35.0519 41.947 35.7818 42.717 35.7818 43.617C35.7918 44.547 35.1019 45.237 34.1719 45.247Z" fill="black"/>
</svg>
